<mxfile host="Electron" modified="2023-10-21T06:52:36.631Z" agent="Mozilla/5.0 (X11; Linux x86_64) AppleWebKit/537.36 (KHTML, like Gecko) draw.io/22.0.3 Chrome/114.0.5735.289 Electron/25.8.4 Safari/537.36" etag="5HlPX8Ia6Tw2a0JCW6vJ" version="22.0.3" type="device">
  <diagram name="Page-1" id="b7OlzmzUkFezuBtnZxnQ">
    <mxGraphModel dx="1364" dy="843" grid="1" gridSize="10" guides="1" tooltips="1" connect="1" arrows="1" fold="1" page="1" pageScale="1" pageWidth="850" pageHeight="1100" background="#E6E6E6" math="0" shadow="0">
      <root>
        <mxCell id="0" />
        <mxCell id="1" parent="0" />
        <mxCell id="ofWHsADp1monDWxXoRBl-6" style="rounded=0;orthogonalLoop=1;jettySize=auto;html=1;exitX=0.5;exitY=1;exitDx=0;exitDy=0;entryX=0.5;entryY=0;entryDx=0;entryDy=0;" parent="1" source="ofWHsADp1monDWxXoRBl-2" target="ofWHsADp1monDWxXoRBl-3" edge="1">
          <mxGeometry relative="1" as="geometry" />
        </mxCell>
        <mxCell id="ofWHsADp1monDWxXoRBl-7" style="rounded=0;orthogonalLoop=1;jettySize=auto;html=1;entryX=0.5;entryY=0;entryDx=0;entryDy=0;exitX=0.5;exitY=1;exitDx=0;exitDy=0;" parent="1" source="ofWHsADp1monDWxXoRBl-2" target="ofWHsADp1monDWxXoRBl-4" edge="1">
          <mxGeometry relative="1" as="geometry" />
        </mxCell>
        <mxCell id="ofWHsADp1monDWxXoRBl-2" value="Parent1" style="rounded=0;whiteSpace=wrap;html=1;" parent="1" vertex="1">
          <mxGeometry x="160" y="120" width="120" height="40" as="geometry" />
        </mxCell>
        <mxCell id="ofWHsADp1monDWxXoRBl-3" value="Child1" style="rounded=0;whiteSpace=wrap;html=1;" parent="1" vertex="1">
          <mxGeometry x="80" y="200" width="120" height="40" as="geometry" />
        </mxCell>
        <mxCell id="ofWHsADp1monDWxXoRBl-8" style="rounded=0;orthogonalLoop=1;jettySize=auto;html=1;exitX=0.5;exitY=1;exitDx=0;exitDy=0;entryX=0.5;entryY=0;entryDx=0;entryDy=0;" parent="1" source="ofWHsADp1monDWxXoRBl-4" target="ofWHsADp1monDWxXoRBl-5" edge="1">
          <mxGeometry relative="1" as="geometry" />
        </mxCell>
        <mxCell id="ofWHsADp1monDWxXoRBl-4" value="Child2" style="rounded=0;whiteSpace=wrap;html=1;" parent="1" vertex="1">
          <mxGeometry x="240" y="200" width="120" height="40" as="geometry" />
        </mxCell>
        <mxCell id="ofWHsADp1monDWxXoRBl-9" style="rounded=0;orthogonalLoop=1;jettySize=auto;html=1;exitX=0.5;exitY=1;exitDx=0;exitDy=0;" parent="1" source="ofWHsADp1monDWxXoRBl-5" edge="1">
          <mxGeometry relative="1" as="geometry">
            <mxPoint x="340" y="360" as="targetPoint" />
          </mxGeometry>
        </mxCell>
        <mxCell id="ofWHsADp1monDWxXoRBl-10" style="rounded=0;orthogonalLoop=1;jettySize=auto;html=1;exitX=0.5;exitY=1;exitDx=0;exitDy=0;" parent="1" source="ofWHsADp1monDWxXoRBl-5" edge="1">
          <mxGeometry relative="1" as="geometry">
            <mxPoint x="260" y="360.0000000000001" as="targetPoint" />
          </mxGeometry>
        </mxCell>
        <mxCell id="ofWHsADp1monDWxXoRBl-5" value="Child3" style="rounded=0;whiteSpace=wrap;html=1;" parent="1" vertex="1">
          <mxGeometry x="240" y="280" width="120" height="40" as="geometry" />
        </mxCell>
        <mxCell id="ofWHsADp1monDWxXoRBl-11" value="....." style="text;html=1;strokeColor=none;fillColor=none;align=center;verticalAlign=middle;whiteSpace=wrap;rounded=0;" parent="1" vertex="1">
          <mxGeometry x="220" y="360" width="60" height="30" as="geometry" />
        </mxCell>
        <mxCell id="ofWHsADp1monDWxXoRBl-12" value="....." style="text;html=1;strokeColor=none;fillColor=none;align=center;verticalAlign=middle;whiteSpace=wrap;rounded=0;" parent="1" vertex="1">
          <mxGeometry x="315" y="360" width="60" height="30" as="geometry" />
        </mxCell>
        <mxCell id="ofWHsADp1monDWxXoRBl-20" style="rounded=0;orthogonalLoop=1;jettySize=auto;html=1;exitX=0.5;exitY=1;exitDx=0;exitDy=0;entryX=0.5;entryY=0;entryDx=0;entryDy=0;" parent="1" source="ofWHsADp1monDWxXoRBl-22" target="ofWHsADp1monDWxXoRBl-23" edge="1">
          <mxGeometry relative="1" as="geometry" />
        </mxCell>
        <mxCell id="ofWHsADp1monDWxXoRBl-21" style="rounded=0;orthogonalLoop=1;jettySize=auto;html=1;entryX=0.5;entryY=0;entryDx=0;entryDy=0;exitX=0.5;exitY=1;exitDx=0;exitDy=0;" parent="1" source="ofWHsADp1monDWxXoRBl-22" target="ofWHsADp1monDWxXoRBl-24" edge="1">
          <mxGeometry relative="1" as="geometry" />
        </mxCell>
        <mxCell id="ofWHsADp1monDWxXoRBl-22" value="Parent1" style="rounded=0;whiteSpace=wrap;html=1;" parent="1" vertex="1">
          <mxGeometry x="717.5" y="120" width="120" height="40" as="geometry" />
        </mxCell>
        <mxCell id="ofWHsADp1monDWxXoRBl-32" style="edgeStyle=orthogonalEdgeStyle;rounded=0;orthogonalLoop=1;jettySize=auto;html=1;entryX=0.5;entryY=0;entryDx=0;entryDy=0;" parent="1" source="ofWHsADp1monDWxXoRBl-23" target="ofWHsADp1monDWxXoRBl-29" edge="1">
          <mxGeometry relative="1" as="geometry" />
        </mxCell>
        <mxCell id="ofWHsADp1monDWxXoRBl-23" value="Child1" style="rounded=0;whiteSpace=wrap;html=1;" parent="1" vertex="1">
          <mxGeometry x="637.5" y="200" width="120" height="40" as="geometry" />
        </mxCell>
        <mxCell id="ofWHsADp1monDWxXoRBl-24" value="Child2" style="rounded=0;whiteSpace=wrap;html=1;fillColor=none;strokeColor=#F00C7E;" parent="1" vertex="1">
          <mxGeometry x="797.5" y="200" width="120" height="40" as="geometry" />
        </mxCell>
        <mxCell id="ofWHsADp1monDWxXoRBl-26" style="rounded=0;orthogonalLoop=1;jettySize=auto;html=1;entryX=0.5;entryY=0;entryDx=0;entryDy=0;exitX=0.5;exitY=1;exitDx=0;exitDy=0;" parent="1" source="ofWHsADp1monDWxXoRBl-25" target="ofWHsADp1monDWxXoRBl-24" edge="1">
          <mxGeometry relative="1" as="geometry" />
        </mxCell>
        <mxCell id="ofWHsADp1monDWxXoRBl-25" value="Parent2" style="rounded=0;whiteSpace=wrap;html=1;" parent="1" vertex="1">
          <mxGeometry x="877.5" y="120" width="120" height="40" as="geometry" />
        </mxCell>
        <mxCell id="ofWHsADp1monDWxXoRBl-27" style="rounded=0;orthogonalLoop=1;jettySize=auto;html=1;exitX=0.5;exitY=1;exitDx=0;exitDy=0;" parent="1" source="ofWHsADp1monDWxXoRBl-29" edge="1">
          <mxGeometry relative="1" as="geometry">
            <mxPoint x="740" y="360" as="targetPoint" />
          </mxGeometry>
        </mxCell>
        <mxCell id="ofWHsADp1monDWxXoRBl-28" style="rounded=0;orthogonalLoop=1;jettySize=auto;html=1;exitX=0.5;exitY=1;exitDx=0;exitDy=0;" parent="1" source="ofWHsADp1monDWxXoRBl-29" edge="1">
          <mxGeometry relative="1" as="geometry">
            <mxPoint x="660" y="360.0000000000001" as="targetPoint" />
          </mxGeometry>
        </mxCell>
        <mxCell id="ofWHsADp1monDWxXoRBl-29" value="Child3" style="rounded=0;whiteSpace=wrap;html=1;" parent="1" vertex="1">
          <mxGeometry x="637.5" y="280" width="120" height="40" as="geometry" />
        </mxCell>
        <mxCell id="ofWHsADp1monDWxXoRBl-30" value="....." style="text;html=1;strokeColor=none;fillColor=none;align=center;verticalAlign=middle;whiteSpace=wrap;rounded=0;" parent="1" vertex="1">
          <mxGeometry x="620" y="360" width="60" height="30" as="geometry" />
        </mxCell>
        <mxCell id="ofWHsADp1monDWxXoRBl-31" value="....." style="text;html=1;strokeColor=none;fillColor=none;align=center;verticalAlign=middle;whiteSpace=wrap;rounded=0;" parent="1" vertex="1">
          <mxGeometry x="715" y="360" width="60" height="30" as="geometry" />
        </mxCell>
        <mxCell id="ofWHsADp1monDWxXoRBl-33" value="&lt;font style=&quot;font-size: 30px;&quot;&gt;SUPPORTED&lt;/font&gt;" style="text;html=1;align=center;verticalAlign=middle;resizable=0;points=[];autosize=1;strokeColor=none;fillColor=none;fontSize=30;" parent="1" vertex="1">
          <mxGeometry x="220" y="20" width="210" height="50" as="geometry" />
        </mxCell>
        <mxCell id="ofWHsADp1monDWxXoRBl-34" value="&lt;font style=&quot;font-size: 30px;&quot;&gt;UNSUPPORTED&lt;/font&gt;" style="text;html=1;align=center;verticalAlign=middle;resizable=0;points=[];autosize=1;strokeColor=none;fillColor=none;fontSize=30;" parent="1" vertex="1">
          <mxGeometry x="705" y="20" width="250" height="50" as="geometry" />
        </mxCell>
        <mxCell id="ofWHsADp1monDWxXoRBl-37" style="edgeStyle=orthogonalEdgeStyle;rounded=0;orthogonalLoop=1;jettySize=auto;html=1;entryX=0.5;entryY=0;entryDx=0;entryDy=0;" parent="1" source="ofWHsADp1monDWxXoRBl-35" target="ofWHsADp1monDWxXoRBl-36" edge="1">
          <mxGeometry relative="1" as="geometry" />
        </mxCell>
        <mxCell id="ofWHsADp1monDWxXoRBl-35" value="Parent2" style="rounded=0;whiteSpace=wrap;html=1;" parent="1" vertex="1">
          <mxGeometry x="400" y="120" width="120" height="40" as="geometry" />
        </mxCell>
        <mxCell id="ofWHsADp1monDWxXoRBl-36" value="Child4" style="rounded=0;whiteSpace=wrap;html=1;" parent="1" vertex="1">
          <mxGeometry x="400" y="200" width="120" height="40" as="geometry" />
        </mxCell>
      </root>
    </mxGraphModel>
  </diagram>
</mxfile>
